<?xml version="1.0" standalone="no"?><svg xmlns="http://www.w3.org/2000/svg" viewBox="0 0 1440 320"><path fill="#0099ff" fill-opacity="1" d="M0,160L24,160C48,160,96,160,144,149.3C192,139,240,117,288,117.3C336,117,384,139,432,128C480,117,528,75,576,80C624,85,672,139,720,149.3C768,160,816,128,864,138.7C912,149,960,203,1008,208C1056,213,1104,171,1152,160C1200,149,1248,171,1296,197.3C1344,224,1392,256,1416,272L1440,288L1440,0L1416,0C1392,0,1344,0,1296,0C1248,0,1200,0,1152,0C1104,0,1056,0,1008,0C960,0,912,0,864,0C816,0,768,0,720,0C672,0,624,0,576,0C528,0,480,0,432,0C384,0,336,0,288,0C240,0,192,0,144,0C96,0,48,0,24,0L0,0Z"></path></svg>